<?xml version="1.0" encoding="utf-8" standalone="no"?>
<!DOCTYPE svg PUBLIC "-//W3C//DTD SVG 1.1//EN"
  "http://www.w3.org/Graphics/SVG/1.1/DTD/svg11.dtd">
<svg xmlns:xlink="http://www.w3.org/1999/xlink" width="720pt" height="432pt" viewBox="0 0 720 432" xmlns="http://www.w3.org/2000/svg" version="1.1">
 <metadata>
  <rdf:RDF xmlns:dc="http://purl.org/dc/elements/1.1/" xmlns:cc="http://creativecommons.org/ns#" xmlns:rdf="http://www.w3.org/1999/02/22-rdf-syntax-ns#">
   <cc:Work>
    <dc:type rdf:resource="http://purl.org/dc/dcmitype/StillImage"/>
    <dc:date>2025-02-27T22:26:25.951000</dc:date>
    <dc:format>image/svg+xml</dc:format>
    <dc:creator>
     <cc:Agent>
      <dc:title>Matplotlib v3.8.2, https://matplotlib.org/</dc:title>
     </cc:Agent>
    </dc:creator>
   </cc:Work>
  </rdf:RDF>
 </metadata>
 <defs>
  <style type="text/css">*{stroke-linejoin: round; stroke-linecap: butt}</style>
 </defs>
 <g id="figure_1">
  <g id="patch_1">
   <path d="M 0 432 
L 720 432 
L 720 0 
L 0 0 
z
" style="fill: #ffffff"/>
  </g>
  <g id="axes_1">
   <g id="patch_2">
    <path d="M 192.465682 199.288194 
C 190.587993 194.817953 188.05361 190.652876 184.946394 186.930782 
C 181.839178 183.208688 178.193783 179.971088 174.130831 177.325111 
C 170.067879 174.679134 165.632683 172.654289 160.971999 171.317577 
C 156.311316 169.980865 151.477123 169.347194 146.62938 169.437531 
C 141.781637 169.527868 136.974409 170.341205 132.366762 171.850631 
C 127.759115 173.360056 123.402437 175.548736 119.440887 178.344248 
C 115.479336 181.13976 111.957094 184.510928 108.990708 188.346202 
C 106.024323 192.181477 103.646876 196.438084 101.937037 200.975178 
C 100.227197 205.512272 99.204034 210.279252 98.901402 215.118383 
C 98.59877 219.957514 99.020045 224.814827 100.151286 229.529598 
C 101.282528 234.244369 103.11112 238.764016 105.576557 242.938988 
C 108.041994 247.113961 111.116779 250.897696 114.699171 254.164995 
C 118.281562 257.432295 122.331607 260.146718 126.715294 262.218448 
C 131.098981 264.290178 135.767419 265.696109 140.566135 266.389721 
C 145.364851 267.083333 150.240326 267.05689 155.031236 266.311266 
C 159.822147 265.565643 164.47506 264.109155 168.836016 261.989997 
C 163.676059 261.64204 158.753918 259.679972 154.769573 256.382818 
C 150.785228 253.085665 147.936949 248.6175 146.629792 243.613745 
C 145.322635 238.609989 145.621647 233.319641 147.484305 228.495045 
C 149.346963 223.670448 152.680578 219.551686 157.011073 216.724489 
C 157.263877 212.723196 158.569235 208.858795 160.794559 205.523801 
C 163.019883 202.188807 166.08719 199.500091 169.684925 197.730754 
C 173.28266 195.961416 177.284745 195.173461 181.284679 195.446922 
C 185.284614 195.720384 189.142223 197.045679 192.465682 199.288194 
" clip-path="url(#p070d9ae39f)" style="fill: #ff0000; opacity: 0.4"/>
   </g>
   <g id="patch_3">
    <path d="M 192.465682 199.288194 
C 194.587944 204.340691 195.8428 209.715176 196.17735 215.185076 
C 196.511901 220.654975 195.921376 226.142327 194.430672 231.415801 
C 194.577522 232.00521 194.70255 232.599842 194.8055 233.198481 
C 194.90845 233.79712 194.989253 234.399357 195.047743 235.003962 
C 197.599295 232.683886 199.590633 229.814085 200.870941 226.611901 
C 202.15125 223.409718 202.687371 219.958086 202.438701 216.518416 
C 202.190031 213.078746 201.16301 209.740121 199.435421 206.755393 
C 197.707831 203.770665 195.324416 201.217134 192.465682 199.288194 
" clip-path="url(#p070d9ae39f)" style="fill: #008000; opacity: 0.4"/>
   </g>
   <g id="patch_4">
    <path d="M 192.465682 199.288194 
C 189.142223 197.045679 185.284614 195.720384 181.284679 195.446922 
C 177.284745 195.173461 173.28266 195.961416 169.684925 197.730754 
C 166.08719 199.500091 163.019883 202.188807 160.794559 205.523801 
C 158.569235 208.858795 157.263877 212.723196 157.011073 216.724489 
C 160.305419 214.573751 164.067006 213.242054 167.980764 212.840943 
C 171.894521 212.439832 175.848037 212.980827 179.510161 214.418614 
C 183.172286 215.856401 186.437835 218.149684 189.033285 221.106375 
C 191.628735 224.063067 193.479539 227.598245 194.430672 231.415801 
C 195.921376 226.142327 196.511901 220.654975 196.17735 215.185076 
C 195.8428 209.715176 194.587944 204.340691 192.465682 199.288194 
" clip-path="url(#p070d9ae39f)" style="fill: #b25900; opacity: 0.4"/>
   </g>
   <g id="patch_5">
    <path d="M 168.836016 261.989997 
C 172.407328 262.230824 175.988634 261.691435 179.330581 260.409382 
C 182.672528 259.12733 185.695712 257.133077 188.189642 254.565475 
C 190.683572 251.997873 192.588992 248.917928 193.773236 245.540083 
C 194.95748 242.162238 195.39241 238.566752 195.047743 235.003962 
C 194.642494 235.372446 194.224079 235.726186 193.793315 236.06449 
C 193.362551 236.402795 192.919719 236.725443 192.465682 237.031806 
C 190.192442 242.443741 186.959935 247.400672 182.924233 251.663273 
C 178.888531 255.925874 174.115644 259.42442 168.836016 261.989997 
" clip-path="url(#p070d9ae39f)" style="fill: #0000ff; opacity: 0.4"/>
   </g>
   <g id="patch_6">
    <path d="M 168.836016 261.989997 
C 174.115644 259.42442 178.888531 255.925874 182.924233 251.663273 
C 186.959935 247.400672 190.192442 242.443741 192.465682 237.031806 
C 188.940174 239.410655 184.817615 240.754655 180.567466 240.910756 
C 176.317318 241.066857 172.107274 240.028901 168.416757 237.915086 
C 164.726239 235.801271 161.700863 232.694999 159.685145 228.950001 
C 157.669427 225.205002 156.7429 220.969041 157.011073 216.724489 
C 152.680578 219.551686 149.346963 223.670448 147.484305 228.495045 
C 145.621647 233.319641 145.322635 238.609989 146.629792 243.613745 
C 147.936949 248.6175 150.785228 253.085665 154.769573 256.382818 
C 158.753918 259.679972 163.676059 261.64204 168.836016 261.989997 
" clip-path="url(#p070d9ae39f)" style="fill: #b200b2; opacity: 0.4"/>
   </g>
   <g id="patch_7">
    <path d="M 194.430672 231.415801 
C 194.160737 232.370717 193.861696 233.317165 193.533969 234.253821 
C 193.206241 235.190477 192.849979 236.116904 192.465682 237.031806 
C 192.919719 236.725443 193.362551 236.402795 193.793315 236.06449 
C 194.224079 235.726186 194.642494 235.372446 195.047743 235.003962 
C 194.989253 234.399357 194.90845 233.79712 194.8055 233.198481 
C 194.70255 232.599842 194.577522 232.00521 194.430672 231.415801 
" clip-path="url(#p070d9ae39f)" style="fill: #0059b2; opacity: 0.4"/>
   </g>
   <g id="patch_8">
    <path d="M 157.011073 216.724489 
C 156.7429 220.969041 157.669427 225.205002 159.685145 228.950001 
C 161.700863 232.694999 164.726239 235.801271 168.416757 237.915086 
C 172.107274 240.028901 176.317318 241.066857 180.567466 240.910756 
C 184.817615 240.754655 188.940174 239.410655 192.465682 237.031806 
C 192.849979 236.116904 193.206241 235.190477 193.533969 234.253821 
C 193.861696 233.317165 194.160737 232.370717 194.430672 231.415801 
C 193.479539 227.598245 191.628735 224.063067 189.033285 221.106375 
C 186.437835 218.149684 183.172286 215.856401 179.510161 214.418614 
C 175.848037 212.980827 171.894521 212.439832 167.980764 212.840943 
C 164.067006 213.242054 160.305419 214.573751 157.011073 216.724489 
" clip-path="url(#p070d9ae39f)" style="fill: #663366; opacity: 0.4"/>
   </g>
   <g id="text_1">
    <!-- 4718 -->
    <g transform="translate(116.326415 214.371132) scale(0.1 -0.1)">
     <defs>
      <path id="DejaVuSans-34" d="M 2419 4116 
L 825 1625 
L 2419 1625 
L 2419 4116 
z
M 2253 4666 
L 3047 4666 
L 3047 1625 
L 3713 1625 
L 3713 1100 
L 3047 1100 
L 3047 0 
L 2419 0 
L 2419 1100 
L 313 1100 
L 313 1709 
L 2253 4666 
z
" transform="scale(0.015625)"/>
      <path id="DejaVuSans-37" d="M 525 4666 
L 3525 4666 
L 3525 4397 
L 1831 0 
L 1172 0 
L 2766 4134 
L 525 4134 
L 525 4666 
z
" transform="scale(0.015625)"/>
      <path id="DejaVuSans-31" d="M 794 531 
L 1825 531 
L 1825 4091 
L 703 3866 
L 703 4441 
L 1819 4666 
L 2450 4666 
L 2450 531 
L 3481 531 
L 3481 0 
L 794 0 
L 794 531 
z
" transform="scale(0.015625)"/>
      <path id="DejaVuSans-38" d="M 2034 2216 
Q 1584 2216 1326 1975 
Q 1069 1734 1069 1313 
Q 1069 891 1326 650 
Q 1584 409 2034 409 
Q 2484 409 2743 651 
Q 3003 894 3003 1313 
Q 3003 1734 2745 1975 
Q 2488 2216 2034 2216 
z
M 1403 2484 
Q 997 2584 770 2862 
Q 544 3141 544 3541 
Q 544 4100 942 4425 
Q 1341 4750 2034 4750 
Q 2731 4750 3128 4425 
Q 3525 4100 3525 3541 
Q 3525 3141 3298 2862 
Q 3072 2584 2669 2484 
Q 3125 2378 3379 2068 
Q 3634 1759 3634 1313 
Q 3634 634 3220 271 
Q 2806 -91 2034 -91 
Q 1263 -91 848 271 
Q 434 634 434 1313 
Q 434 1759 690 2068 
Q 947 2378 1403 2484 
z
M 1172 3481 
Q 1172 3119 1398 2916 
Q 1625 2713 2034 2713 
Q 2441 2713 2670 2916 
Q 2900 3119 2900 3481 
Q 2900 3844 2670 4047 
Q 2441 4250 2034 4250 
Q 1625 4250 1398 4047 
Q 1172 3844 1172 3481 
z
" transform="scale(0.015625)"/>
     </defs>
     <use xlink:href="#DejaVuSans-34"/>
     <use xlink:href="#DejaVuSans-37" x="63.623047"/>
     <use xlink:href="#DejaVuSans-31" x="127.246094"/>
     <use xlink:href="#DejaVuSans-38" x="190.869141"/>
    </g>
   </g>
   <g id="text_2">
    <!-- 119 -->
    <g transform="translate(190.864321 219.873267) scale(0.1 -0.1)">
     <defs>
      <path id="DejaVuSans-39" d="M 703 97 
L 703 672 
Q 941 559 1184 500 
Q 1428 441 1663 441 
Q 2288 441 2617 861 
Q 2947 1281 2994 2138 
Q 2813 1869 2534 1725 
Q 2256 1581 1919 1581 
Q 1219 1581 811 2004 
Q 403 2428 403 3163 
Q 403 3881 828 4315 
Q 1253 4750 1959 4750 
Q 2769 4750 3195 4129 
Q 3622 3509 3622 2328 
Q 3622 1225 3098 567 
Q 2575 -91 1691 -91 
Q 1453 -91 1209 -44 
Q 966 3 703 97 
z
M 1959 2075 
Q 2384 2075 2632 2365 
Q 2881 2656 2881 3163 
Q 2881 3666 2632 3958 
Q 2384 4250 1959 4250 
Q 1534 4250 1286 3958 
Q 1038 3666 1038 3163 
Q 1038 2656 1286 2365 
Q 1534 2075 1959 2075 
z
" transform="scale(0.015625)"/>
     </defs>
     <use xlink:href="#DejaVuSans-31"/>
     <use xlink:href="#DejaVuSans-31" x="63.623047"/>
     <use xlink:href="#DejaVuSans-39" x="127.246094"/>
    </g>
   </g>
   <g id="text_3">
    <!-- 672 -->
    <g transform="translate(167.952075 209.79464) scale(0.1 -0.1)">
     <defs>
      <path id="DejaVuSans-36" d="M 2113 2584 
Q 1688 2584 1439 2293 
Q 1191 2003 1191 1497 
Q 1191 994 1439 701 
Q 1688 409 2113 409 
Q 2538 409 2786 701 
Q 3034 994 3034 1497 
Q 3034 2003 2786 2293 
Q 2538 2584 2113 2584 
z
M 3366 4563 
L 3366 3988 
Q 3128 4100 2886 4159 
Q 2644 4219 2406 4219 
Q 1781 4219 1451 3797 
Q 1122 3375 1075 2522 
Q 1259 2794 1537 2939 
Q 1816 3084 2150 3084 
Q 2853 3084 3261 2657 
Q 3669 2231 3669 1497 
Q 3669 778 3244 343 
Q 2819 -91 2113 -91 
Q 1303 -91 875 529 
Q 447 1150 447 2328 
Q 447 3434 972 4092 
Q 1497 4750 2381 4750 
Q 2619 4750 2861 4703 
Q 3103 4656 3366 4563 
z
" transform="scale(0.015625)"/>
      <path id="DejaVuSans-32" d="M 1228 531 
L 3431 531 
L 3431 0 
L 469 0 
L 469 531 
Q 828 903 1448 1529 
Q 2069 2156 2228 2338 
Q 2531 2678 2651 2914 
Q 2772 3150 2772 3378 
Q 2772 3750 2511 3984 
Q 2250 4219 1831 4219 
Q 1534 4219 1204 4116 
Q 875 4013 500 3803 
L 500 4441 
Q 881 4594 1212 4672 
Q 1544 4750 1819 4750 
Q 2544 4750 2975 4387 
Q 3406 4025 3406 3419 
Q 3406 3131 3298 2873 
Q 3191 2616 2906 2266 
Q 2828 2175 2409 1742 
Q 1991 1309 1228 531 
z
" transform="scale(0.015625)"/>
     </defs>
     <use xlink:href="#DejaVuSans-36"/>
     <use xlink:href="#DejaVuSans-37" x="63.623047"/>
     <use xlink:href="#DejaVuSans-32" x="127.246094"/>
    </g>
   </g>
   <g id="text_4">
    <!-- 118 -->
    <g transform="translate(177.497121 255.492988) scale(0.1 -0.1)">
     <use xlink:href="#DejaVuSans-31"/>
     <use xlink:href="#DejaVuSans-31" x="63.623047"/>
     <use xlink:href="#DejaVuSans-38" x="127.246094"/>
    </g>
   </g>
   <g id="text_5">
    <!-- 940 -->
    <g transform="translate(150.805504 245.107259) scale(0.1 -0.1)">
     <defs>
      <path id="DejaVuSans-30" d="M 2034 4250 
Q 1547 4250 1301 3770 
Q 1056 3291 1056 2328 
Q 1056 1369 1301 889 
Q 1547 409 2034 409 
Q 2525 409 2770 889 
Q 3016 1369 3016 2328 
Q 3016 3291 2770 3770 
Q 2525 4250 2034 4250 
z
M 2034 4750 
Q 2819 4750 3233 4129 
Q 3647 3509 3647 2328 
Q 3647 1150 3233 529 
Q 2819 -91 2034 -91 
Q 1250 -91 836 529 
Q 422 1150 422 2328 
Q 422 3509 836 4129 
Q 1250 4750 2034 4750 
z
" transform="scale(0.015625)"/>
     </defs>
     <use xlink:href="#DejaVuSans-39"/>
     <use xlink:href="#DejaVuSans-34" x="63.623047"/>
     <use xlink:href="#DejaVuSans-30" x="127.246094"/>
    </g>
   </g>
   <g id="text_6">
    <!-- 41 -->
    <g transform="translate(187.71531 237.267726) scale(0.1 -0.1)">
     <use xlink:href="#DejaVuSans-34"/>
     <use xlink:href="#DejaVuSans-31" x="63.623047"/>
    </g>
   </g>
   <g id="text_7">
    <!-- 703 -->
    <g transform="translate(164.561275 230.048873) scale(0.1 -0.1)">
     <defs>
      <path id="DejaVuSans-33" d="M 2597 2516 
Q 3050 2419 3304 2112 
Q 3559 1806 3559 1356 
Q 3559 666 3084 287 
Q 2609 -91 1734 -91 
Q 1441 -91 1130 -33 
Q 819 25 488 141 
L 488 750 
Q 750 597 1062 519 
Q 1375 441 1716 441 
Q 2309 441 2620 675 
Q 2931 909 2931 1356 
Q 2931 1769 2642 2001 
Q 2353 2234 1838 2234 
L 1294 2234 
L 1294 2753 
L 1863 2753 
Q 2328 2753 2575 2939 
Q 2822 3125 2822 3475 
Q 2822 3834 2567 4026 
Q 2313 4219 1838 4219 
Q 1578 4219 1281 4162 
Q 984 4106 628 3988 
L 628 4550 
Q 988 4650 1302 4700 
Q 1616 4750 1894 4750 
Q 2613 4750 3031 4423 
Q 3450 4097 3450 3541 
Q 3450 3153 3228 2886 
Q 3006 2619 2597 2516 
z
" transform="scale(0.015625)"/>
     </defs>
     <use xlink:href="#DejaVuSans-37"/>
     <use xlink:href="#DejaVuSans-30" x="63.623047"/>
     <use xlink:href="#DejaVuSans-33" x="127.246094"/>
    </g>
   </g>
   <g id="text_8">
    <!-- Groundtruth -->
    <g transform="translate(49.4881 169.429072) scale(0.12 -0.12)">
     <defs>
      <path id="DejaVuSans-47" d="M 3809 666 
L 3809 1919 
L 2778 1919 
L 2778 2438 
L 4434 2438 
L 4434 434 
Q 4069 175 3628 42 
Q 3188 -91 2688 -91 
Q 1594 -91 976 548 
Q 359 1188 359 2328 
Q 359 3472 976 4111 
Q 1594 4750 2688 4750 
Q 3144 4750 3555 4637 
Q 3966 4525 4313 4306 
L 4313 3634 
Q 3963 3931 3569 4081 
Q 3175 4231 2741 4231 
Q 1884 4231 1454 3753 
Q 1025 3275 1025 2328 
Q 1025 1384 1454 906 
Q 1884 428 2741 428 
Q 3075 428 3337 486 
Q 3600 544 3809 666 
z
" transform="scale(0.015625)"/>
      <path id="DejaVuSans-72" d="M 2631 2963 
Q 2534 3019 2420 3045 
Q 2306 3072 2169 3072 
Q 1681 3072 1420 2755 
Q 1159 2438 1159 1844 
L 1159 0 
L 581 0 
L 581 3500 
L 1159 3500 
L 1159 2956 
Q 1341 3275 1631 3429 
Q 1922 3584 2338 3584 
Q 2397 3584 2469 3576 
Q 2541 3569 2628 3553 
L 2631 2963 
z
" transform="scale(0.015625)"/>
      <path id="DejaVuSans-6f" d="M 1959 3097 
Q 1497 3097 1228 2736 
Q 959 2375 959 1747 
Q 959 1119 1226 758 
Q 1494 397 1959 397 
Q 2419 397 2687 759 
Q 2956 1122 2956 1747 
Q 2956 2369 2687 2733 
Q 2419 3097 1959 3097 
z
M 1959 3584 
Q 2709 3584 3137 3096 
Q 3566 2609 3566 1747 
Q 3566 888 3137 398 
Q 2709 -91 1959 -91 
Q 1206 -91 779 398 
Q 353 888 353 1747 
Q 353 2609 779 3096 
Q 1206 3584 1959 3584 
z
" transform="scale(0.015625)"/>
      <path id="DejaVuSans-75" d="M 544 1381 
L 544 3500 
L 1119 3500 
L 1119 1403 
Q 1119 906 1312 657 
Q 1506 409 1894 409 
Q 2359 409 2629 706 
Q 2900 1003 2900 1516 
L 2900 3500 
L 3475 3500 
L 3475 0 
L 2900 0 
L 2900 538 
Q 2691 219 2414 64 
Q 2138 -91 1772 -91 
Q 1169 -91 856 284 
Q 544 659 544 1381 
z
M 1991 3584 
L 1991 3584 
z
" transform="scale(0.015625)"/>
      <path id="DejaVuSans-6e" d="M 3513 2113 
L 3513 0 
L 2938 0 
L 2938 2094 
Q 2938 2591 2744 2837 
Q 2550 3084 2163 3084 
Q 1697 3084 1428 2787 
Q 1159 2491 1159 1978 
L 1159 0 
L 581 0 
L 581 3500 
L 1159 3500 
L 1159 2956 
Q 1366 3272 1645 3428 
Q 1925 3584 2291 3584 
Q 2894 3584 3203 3211 
Q 3513 2838 3513 2113 
z
" transform="scale(0.015625)"/>
      <path id="DejaVuSans-64" d="M 2906 2969 
L 2906 4863 
L 3481 4863 
L 3481 0 
L 2906 0 
L 2906 525 
Q 2725 213 2448 61 
Q 2172 -91 1784 -91 
Q 1150 -91 751 415 
Q 353 922 353 1747 
Q 353 2572 751 3078 
Q 1150 3584 1784 3584 
Q 2172 3584 2448 3432 
Q 2725 3281 2906 2969 
z
M 947 1747 
Q 947 1113 1208 752 
Q 1469 391 1925 391 
Q 2381 391 2643 752 
Q 2906 1113 2906 1747 
Q 2906 2381 2643 2742 
Q 2381 3103 1925 3103 
Q 1469 3103 1208 2742 
Q 947 2381 947 1747 
z
" transform="scale(0.015625)"/>
      <path id="DejaVuSans-74" d="M 1172 4494 
L 1172 3500 
L 2356 3500 
L 2356 3053 
L 1172 3053 
L 1172 1153 
Q 1172 725 1289 603 
Q 1406 481 1766 481 
L 2356 481 
L 2356 0 
L 1766 0 
Q 1100 0 847 248 
Q 594 497 594 1153 
L 594 3053 
L 172 3053 
L 172 3500 
L 594 3500 
L 594 4494 
L 1172 4494 
z
" transform="scale(0.015625)"/>
      <path id="DejaVuSans-68" d="M 3513 2113 
L 3513 0 
L 2938 0 
L 2938 2094 
Q 2938 2591 2744 2837 
Q 2550 3084 2163 3084 
Q 1697 3084 1428 2787 
Q 1159 2491 1159 1978 
L 1159 0 
L 581 0 
L 581 4863 
L 1159 4863 
L 1159 2956 
Q 1366 3272 1645 3428 
Q 1925 3584 2291 3584 
Q 2894 3584 3203 3211 
Q 3513 2838 3513 2113 
z
" transform="scale(0.015625)"/>
     </defs>
     <use xlink:href="#DejaVuSans-47"/>
     <use xlink:href="#DejaVuSans-72" x="77.490234"/>
     <use xlink:href="#DejaVuSans-6f" x="116.353516"/>
     <use xlink:href="#DejaVuSans-75" x="177.535156"/>
     <use xlink:href="#DejaVuSans-6e" x="240.914062"/>
     <use xlink:href="#DejaVuSans-64" x="304.292969"/>
     <use xlink:href="#DejaVuSans-74" x="367.769531"/>
     <use xlink:href="#DejaVuSans-72" x="406.978516"/>
     <use xlink:href="#DejaVuSans-75" x="448.091797"/>
     <use xlink:href="#DejaVuSans-74" x="511.470703"/>
     <use xlink:href="#DejaVuSans-68" x="550.679688"/>
    </g>
   </g>
   <g id="text_9">
    <!-- Information -->
    <g transform="translate(191.114914 195.393904) scale(0.12 -0.12)">
     <defs>
      <path id="DejaVuSans-49" d="M 628 4666 
L 1259 4666 
L 1259 0 
L 628 0 
L 628 4666 
z
" transform="scale(0.015625)"/>
      <path id="DejaVuSans-66" d="M 2375 4863 
L 2375 4384 
L 1825 4384 
Q 1516 4384 1395 4259 
Q 1275 4134 1275 3809 
L 1275 3500 
L 2222 3500 
L 2222 3053 
L 1275 3053 
L 1275 0 
L 697 0 
L 697 3053 
L 147 3053 
L 147 3500 
L 697 3500 
L 697 3744 
Q 697 4328 969 4595 
Q 1241 4863 1831 4863 
L 2375 4863 
z
" transform="scale(0.015625)"/>
      <path id="DejaVuSans-6d" d="M 3328 2828 
Q 3544 3216 3844 3400 
Q 4144 3584 4550 3584 
Q 5097 3584 5394 3201 
Q 5691 2819 5691 2113 
L 5691 0 
L 5113 0 
L 5113 2094 
Q 5113 2597 4934 2840 
Q 4756 3084 4391 3084 
Q 3944 3084 3684 2787 
Q 3425 2491 3425 1978 
L 3425 0 
L 2847 0 
L 2847 2094 
Q 2847 2600 2669 2842 
Q 2491 3084 2119 3084 
Q 1678 3084 1418 2786 
Q 1159 2488 1159 1978 
L 1159 0 
L 581 0 
L 581 3500 
L 1159 3500 
L 1159 2956 
Q 1356 3278 1631 3431 
Q 1906 3584 2284 3584 
Q 2666 3584 2933 3390 
Q 3200 3197 3328 2828 
z
" transform="scale(0.015625)"/>
      <path id="DejaVuSans-61" d="M 2194 1759 
Q 1497 1759 1228 1600 
Q 959 1441 959 1056 
Q 959 750 1161 570 
Q 1363 391 1709 391 
Q 2188 391 2477 730 
Q 2766 1069 2766 1631 
L 2766 1759 
L 2194 1759 
z
M 3341 1997 
L 3341 0 
L 2766 0 
L 2766 531 
Q 2569 213 2275 61 
Q 1981 -91 1556 -91 
Q 1019 -91 701 211 
Q 384 513 384 1019 
Q 384 1609 779 1909 
Q 1175 2209 1959 2209 
L 2766 2209 
L 2766 2266 
Q 2766 2663 2505 2880 
Q 2244 3097 1772 3097 
Q 1472 3097 1187 3025 
Q 903 2953 641 2809 
L 641 3341 
Q 956 3463 1253 3523 
Q 1550 3584 1831 3584 
Q 2591 3584 2966 3190 
Q 3341 2797 3341 1997 
z
" transform="scale(0.015625)"/>
      <path id="DejaVuSans-69" d="M 603 3500 
L 1178 3500 
L 1178 0 
L 603 0 
L 603 3500 
z
M 603 4863 
L 1178 4863 
L 1178 4134 
L 603 4134 
L 603 4863 
z
" transform="scale(0.015625)"/>
     </defs>
     <use xlink:href="#DejaVuSans-49"/>
     <use xlink:href="#DejaVuSans-6e" x="29.492188"/>
     <use xlink:href="#DejaVuSans-66" x="92.871094"/>
     <use xlink:href="#DejaVuSans-6f" x="128.076172"/>
     <use xlink:href="#DejaVuSans-72" x="189.257812"/>
     <use xlink:href="#DejaVuSans-6d" x="228.621094"/>
     <use xlink:href="#DejaVuSans-61" x="326.033203"/>
     <use xlink:href="#DejaVuSans-74" x="387.3125"/>
     <use xlink:href="#DejaVuSans-69" x="426.521484"/>
     <use xlink:href="#DejaVuSans-6f" x="454.304688"/>
     <use xlink:href="#DejaVuSans-6e" x="515.486328"/>
    </g>
   </g>
   <g id="text_10">
    <!-- Peak -->
    <g transform="translate(156.252186 273.630689) scale(0.12 -0.12)">
     <defs>
      <path id="DejaVuSans-50" d="M 1259 4147 
L 1259 2394 
L 2053 2394 
Q 2494 2394 2734 2622 
Q 2975 2850 2975 3272 
Q 2975 3691 2734 3919 
Q 2494 4147 2053 4147 
L 1259 4147 
z
M 628 4666 
L 2053 4666 
Q 2838 4666 3239 4311 
Q 3641 3956 3641 3272 
Q 3641 2581 3239 2228 
Q 2838 1875 2053 1875 
L 1259 1875 
L 1259 0 
L 628 0 
L 628 4666 
z
" transform="scale(0.015625)"/>
      <path id="DejaVuSans-65" d="M 3597 1894 
L 3597 1613 
L 953 1613 
Q 991 1019 1311 708 
Q 1631 397 2203 397 
Q 2534 397 2845 478 
Q 3156 559 3463 722 
L 3463 178 
Q 3153 47 2828 -22 
Q 2503 -91 2169 -91 
Q 1331 -91 842 396 
Q 353 884 353 1716 
Q 353 2575 817 3079 
Q 1281 3584 2069 3584 
Q 2775 3584 3186 3129 
Q 3597 2675 3597 1894 
z
M 3022 2063 
Q 3016 2534 2758 2815 
Q 2500 3097 2075 3097 
Q 1594 3097 1305 2825 
Q 1016 2553 972 2059 
L 3022 2063 
z
" transform="scale(0.015625)"/>
      <path id="DejaVuSans-6b" d="M 581 4863 
L 1159 4863 
L 1159 1991 
L 2875 3500 
L 3609 3500 
L 1753 1863 
L 3688 0 
L 2938 0 
L 1159 1709 
L 1159 0 
L 581 0 
L 581 4863 
z
" transform="scale(0.015625)"/>
     </defs>
     <use xlink:href="#DejaVuSans-50"/>
     <use xlink:href="#DejaVuSans-65" x="56.677734"/>
     <use xlink:href="#DejaVuSans-61" x="118.201172"/>
     <use xlink:href="#DejaVuSans-6b" x="179.480469"/>
    </g>
   </g>
  </g>
  <g id="axes_2">
   <g id="patch_9">
    <path d="M 343.563655 236.082688 
C 342.656751 238.081108 341.608148 240.012143 340.425865 241.861025 
C 339.243583 243.709908 337.930643 245.471911 336.497088 247.13356 
C 336.491592 247.36573 336.482718 247.597808 336.470468 247.82972 
C 336.458219 248.061632 336.442594 248.293354 336.423601 248.524811 
C 337.897632 246.631138 339.236805 244.636246 340.431226 242.55487 
C 341.625647 240.473495 342.672368 238.310775 343.563655 236.082688 
M 343.563655 198.023039 
C 340.015936 189.154265 334.057817 181.451833 326.365088 175.789379 
C 318.67236 170.126925 309.547297 166.726946 300.024894 165.97508 
C 290.502491 165.223213 280.956918 167.149003 272.470865 171.534019 
C 263.984812 175.919035 256.891727 182.590974 251.996131 190.793083 
C 247.100535 198.995192 244.594793 208.405182 244.763115 217.955738 
C 244.931438 227.506294 247.767211 236.822143 252.94879 244.846648 
C 258.13037 252.871153 265.454155 259.289005 274.089455 263.372268 
C 282.724756 267.455531 292.332262 269.043759 301.822257 267.956812 
C 300.49559 267.290382 299.233796 266.501968 298.053198 265.601767 
C 296.872599 264.701566 295.778308 263.693476 294.784477 262.590537 
C 286.891152 261.403917 279.440324 258.185139 273.16584 253.251228 
C 266.891356 248.317317 262.006203 241.835754 258.991531 234.444923 
C 255.976858 227.054092 254.935 219.004875 255.96857 211.090055 
C 257.00214 203.175236 260.076054 195.663484 264.887556 189.294647 
C 269.699057 182.92581 276.08482 177.916079 283.415897 174.758873 
C 290.746973 171.601667 298.77451 170.404157 306.707857 171.284289 
C 314.641205 172.164421 322.211065 175.092319 328.671867 179.779608 
C 335.132668 184.466896 340.265099 190.754465 343.563655 198.023039 
" clip-path="url(#pd23be3a804)" style="fill: #ff0000; opacity: 0.4"/>
   </g>
   <g id="patch_10">
    <path d="M 343.563655 198.023039 
C 345.9847 204.075291 347.228666 210.534335 347.228666 217.052863 
C 347.228666 223.571391 345.9847 230.030436 343.563655 236.082688 
C 346.276183 230.105464 347.679623 223.61678 347.679623 217.052863 
C 347.679623 210.488946 346.276183 204.000262 343.563655 198.023039 
" clip-path="url(#pd23be3a804)" style="fill: #008000; opacity: 0.4"/>
   </g>
   <g id="patch_11">
    <path d="M 343.563655 198.023039 
C 340.265099 190.754465 335.132668 184.466896 328.671867 179.779608 
C 322.211065 175.092319 314.641205 172.164421 306.707857 171.284289 
C 298.77451 170.404157 290.746973 171.601667 283.415897 174.758873 
C 276.08482 177.916079 269.699057 182.92581 264.887556 189.294647 
C 260.076054 195.663484 257.00214 203.175236 255.96857 211.090055 
C 254.935 219.004875 255.976858 227.054092 258.991531 234.444923 
C 262.006203 241.835754 266.891356 248.317317 273.16584 253.251228 
C 279.440324 258.185139 286.891152 261.403917 294.784477 262.590537 
C 292.168752 259.687645 290.303203 256.187928 289.351331 252.398107 
C 288.399458 248.608287 288.389906 244.642408 289.32351 240.848046 
C 290.257115 237.053683 292.105782 233.54502 294.707492 230.62956 
C 297.309203 227.714101 300.585663 225.479578 304.249721 224.121829 
C 307.913779 222.76408 311.855173 222.323962 315.728473 222.84005 
C 319.601774 223.356137 323.290423 224.812898 326.471143 227.082661 
C 329.651863 229.352424 332.228937 232.366885 333.976507 235.861853 
C 335.724078 239.356821 336.589555 243.227122 336.497088 247.13356 
C 337.930643 245.471911 339.243583 243.709908 340.425865 241.861025 
C 341.608148 240.012143 342.656751 238.081108 343.563655 236.082688 
C 345.9847 230.030436 347.228666 223.571391 347.228666 217.052863 
C 347.228666 210.534335 345.9847 204.075291 343.563655 198.023039 
" clip-path="url(#pd23be3a804)" style="fill: #b25900; opacity: 0.4"/>
   </g>
   <g id="patch_12">
    <path d="M 336.423601 248.524811 
C 332.238154 253.901811 327.021822 258.390252 321.080647 261.726797 
C 315.139471 265.063341 308.59196 267.181436 301.822257 267.956812 
C 305.323215 269.715462 309.202987 270.587981 313.119794 270.497507 
C 317.036601 270.407032 320.871948 269.356301 324.287969 267.437875 
C 327.70399 265.519448 330.597342 262.791365 332.71314 259.493948 
C 334.828939 256.196532 336.103176 252.429538 336.423601 248.524811 
" clip-path="url(#pd23be3a804)" style="fill: #0000ff; opacity: 0.4"/>
   </g>
   <g id="patch_13">
    <path d="M 336.497088 247.13356 
C 331.416063 253.023026 324.924702 257.530212 317.631018 260.232951 
C 310.337334 262.93569 302.476388 263.746879 294.784477 262.590537 
C 295.778308 263.693476 296.872599 264.701566 298.053198 265.601767 
C 299.233796 266.501968 300.49559 267.290382 301.822257 267.956812 
C 308.59196 267.181436 315.139471 265.063341 321.080647 261.726797 
C 327.021822 258.390252 332.238154 253.901811 336.423601 248.524811 
C 336.442594 248.293354 336.458219 248.061632 336.470468 247.82972 
C 336.482718 247.597808 336.491592 247.36573 336.497088 247.13356 
" clip-path="url(#pd23be3a804)" style="fill: #b200b2; opacity: 0.4"/>
   </g>
   <g id="patch_14">
    <path d="M 294.784477 262.590537 
C 302.476388 263.746879 310.337334 262.93569 317.631018 260.232951 
C 324.924702 257.530212 331.416063 253.023026 336.497088 247.13356 
C 336.589555 243.227122 335.724078 239.356821 333.976507 235.861853 
C 332.228937 232.366885 329.651863 229.352424 326.471143 227.082661 
C 323.290423 224.812898 319.601774 223.356137 315.728473 222.84005 
C 311.855173 222.323962 307.913779 222.76408 304.249721 224.121829 
C 300.585663 225.479578 297.309203 227.714101 294.707492 230.62956 
C 292.105782 233.54502 290.257115 237.053683 289.32351 240.848046 
C 288.389906 244.642408 288.399458 248.608287 289.351331 252.398107 
C 290.303203 256.187928 292.168752 259.687645 294.784477 262.590537 
" clip-path="url(#pd23be3a804)" style="fill: #663366; opacity: 0.4"/>
   </g>
   <g id="text_11">
    <!-- 1253 -->
    <g transform="translate(247.139564 195.966789) scale(0.1 -0.1)">
     <defs>
      <path id="DejaVuSans-35" d="M 691 4666 
L 3169 4666 
L 3169 4134 
L 1269 4134 
L 1269 2991 
Q 1406 3038 1543 3061 
Q 1681 3084 1819 3084 
Q 2600 3084 3056 2656 
Q 3513 2228 3513 1497 
Q 3513 744 3044 326 
Q 2575 -91 1722 -91 
Q 1428 -91 1123 -41 
Q 819 9 494 109 
L 494 744 
Q 775 591 1075 516 
Q 1375 441 1709 441 
Q 2250 441 2565 725 
Q 2881 1009 2881 1497 
Q 2881 1984 2565 2268 
Q 2250 2553 1709 2553 
Q 1456 2553 1204 2497 
Q 953 2441 691 2322 
L 691 4666 
z
" transform="scale(0.015625)"/>
     </defs>
     <use xlink:href="#DejaVuSans-31"/>
     <use xlink:href="#DejaVuSans-32" x="63.623047"/>
     <use xlink:href="#DejaVuSans-35" x="127.246094"/>
     <use xlink:href="#DejaVuSans-33" x="190.869141"/>
    </g>
   </g>
   <g id="text_12">
    <!-- 9 -->
    <g transform="translate(344.272895 219.812238) scale(0.1 -0.1)">
     <use xlink:href="#DejaVuSans-39"/>
    </g>
   </g>
   <g id="text_13">
    <!-- 4405 -->
    <g transform="translate(278.334999 210.983381) scale(0.1 -0.1)">
     <use xlink:href="#DejaVuSans-34"/>
     <use xlink:href="#DejaVuSans-34" x="63.623047"/>
     <use xlink:href="#DejaVuSans-30" x="127.246094"/>
     <use xlink:href="#DejaVuSans-35" x="190.869141"/>
    </g>
   </g>
   <g id="text_14">
    <!-- 159 -->
    <g transform="translate(313.140558 267.341711) scale(0.1 -0.1)">
     <use xlink:href="#DejaVuSans-31"/>
     <use xlink:href="#DejaVuSans-35" x="63.623047"/>
     <use xlink:href="#DejaVuSans-39" x="127.246094"/>
    </g>
   </g>
   <g id="text_15">
    <!-- 109 -->
    <g transform="translate(306.547036 264.094865) scale(0.1 -0.1)">
     <use xlink:href="#DejaVuSans-31"/>
     <use xlink:href="#DejaVuSans-30" x="63.623047"/>
     <use xlink:href="#DejaVuSans-39" x="127.246094"/>
    </g>
   </g>
   <g id="text_16">
    <!-- 1266 -->
    <g transform="translate(298.215369 244.936765) scale(0.1 -0.1)">
     <use xlink:href="#DejaVuSans-31"/>
     <use xlink:href="#DejaVuSans-32" x="63.623047"/>
     <use xlink:href="#DejaVuSans-36" x="127.246094"/>
     <use xlink:href="#DejaVuSans-36" x="190.869141"/>
    </g>
   </g>
   <g id="text_17">
    <!-- Groundtruth -->
    <g transform="translate(196.689786 165.81611) scale(0.12 -0.12)">
     <use xlink:href="#DejaVuSans-47"/>
     <use xlink:href="#DejaVuSans-72" x="77.490234"/>
     <use xlink:href="#DejaVuSans-6f" x="116.353516"/>
     <use xlink:href="#DejaVuSans-75" x="177.535156"/>
     <use xlink:href="#DejaVuSans-6e" x="240.914062"/>
     <use xlink:href="#DejaVuSans-64" x="304.292969"/>
     <use xlink:href="#DejaVuSans-74" x="367.769531"/>
     <use xlink:href="#DejaVuSans-72" x="406.978516"/>
     <use xlink:href="#DejaVuSans-75" x="448.091797"/>
     <use xlink:href="#DejaVuSans-74" x="511.470703"/>
     <use xlink:href="#DejaVuSans-68" x="550.679688"/>
    </g>
   </g>
   <g id="text_18">
    <!-- Bayesian -->
    <g transform="translate(324.654938 171.003494) scale(0.12 -0.12)">
     <defs>
      <path id="DejaVuSans-42" d="M 1259 2228 
L 1259 519 
L 2272 519 
Q 2781 519 3026 730 
Q 3272 941 3272 1375 
Q 3272 1813 3026 2020 
Q 2781 2228 2272 2228 
L 1259 2228 
z
M 1259 4147 
L 1259 2741 
L 2194 2741 
Q 2656 2741 2882 2914 
Q 3109 3088 3109 3444 
Q 3109 3797 2882 3972 
Q 2656 4147 2194 4147 
L 1259 4147 
z
M 628 4666 
L 2241 4666 
Q 2963 4666 3353 4366 
Q 3744 4066 3744 3513 
Q 3744 3084 3544 2831 
Q 3344 2578 2956 2516 
Q 3422 2416 3680 2098 
Q 3938 1781 3938 1306 
Q 3938 681 3513 340 
Q 3088 0 2303 0 
L 628 0 
L 628 4666 
z
" transform="scale(0.015625)"/>
      <path id="DejaVuSans-79" d="M 2059 -325 
Q 1816 -950 1584 -1140 
Q 1353 -1331 966 -1331 
L 506 -1331 
L 506 -850 
L 844 -850 
Q 1081 -850 1212 -737 
Q 1344 -625 1503 -206 
L 1606 56 
L 191 3500 
L 800 3500 
L 1894 763 
L 2988 3500 
L 3597 3500 
L 2059 -325 
z
" transform="scale(0.015625)"/>
      <path id="DejaVuSans-73" d="M 2834 3397 
L 2834 2853 
Q 2591 2978 2328 3040 
Q 2066 3103 1784 3103 
Q 1356 3103 1142 2972 
Q 928 2841 928 2578 
Q 928 2378 1081 2264 
Q 1234 2150 1697 2047 
L 1894 2003 
Q 2506 1872 2764 1633 
Q 3022 1394 3022 966 
Q 3022 478 2636 193 
Q 2250 -91 1575 -91 
Q 1294 -91 989 -36 
Q 684 19 347 128 
L 347 722 
Q 666 556 975 473 
Q 1284 391 1588 391 
Q 1994 391 2212 530 
Q 2431 669 2431 922 
Q 2431 1156 2273 1281 
Q 2116 1406 1581 1522 
L 1381 1569 
Q 847 1681 609 1914 
Q 372 2147 372 2553 
Q 372 3047 722 3315 
Q 1072 3584 1716 3584 
Q 2034 3584 2315 3537 
Q 2597 3491 2834 3397 
z
" transform="scale(0.015625)"/>
     </defs>
     <use xlink:href="#DejaVuSans-42"/>
     <use xlink:href="#DejaVuSans-61" x="68.603516"/>
     <use xlink:href="#DejaVuSans-79" x="129.882812"/>
     <use xlink:href="#DejaVuSans-65" x="189.0625"/>
     <use xlink:href="#DejaVuSans-73" x="250.585938"/>
     <use xlink:href="#DejaVuSans-69" x="302.685547"/>
     <use xlink:href="#DejaVuSans-61" x="330.46875"/>
     <use xlink:href="#DejaVuSans-6e" x="391.748047"/>
    </g>
   </g>
   <g id="text_19">
    <!-- Peak -->
    <g transform="translate(298.323587 282.015692) scale(0.12 -0.12)">
     <use xlink:href="#DejaVuSans-50"/>
     <use xlink:href="#DejaVuSans-65" x="56.677734"/>
     <use xlink:href="#DejaVuSans-61" x="118.201172"/>
     <use xlink:href="#DejaVuSans-6b" x="179.480469"/>
    </g>
   </g>
  </g>
  <g id="axes_3">
   <g id="patch_15">
    <path d="M 477.548544 193.677902 
C 472.94756 186.079406 466.296434 179.929636 458.361364 175.937035 
C 450.426293 171.944434 441.524148 170.268439 432.68044 171.10212 
C 423.836732 171.935802 415.404615 175.245869 408.355453 180.651008 
C 401.306292 186.056146 395.921579 193.340514 392.821625 201.664965 
C 389.721671 209.989416 389.030265 219.021531 390.827055 227.720827 
C 392.623846 236.420123 396.837083 244.439211 402.981408 250.854308 
C 409.125734 257.269405 416.955787 261.824337 425.569561 263.994384 
C 434.183335 266.164431 443.236856 265.862938 451.687175 263.124634 
C 448.121042 261.721722 444.9321 259.503744 442.376059 256.648551 
C 439.820018 253.793359 437.967072 250.379363 436.965804 246.680318 
C 435.964535 242.981273 435.84244 239.098765 436.609309 235.344117 
C 437.376178 231.589469 439.010952 228.065793 441.382543 225.055639 
C 440.089125 220.232821 440.178359 215.142015 441.640003 210.367489 
C 443.101648 205.592963 445.877562 201.32464 449.649155 198.052395 
C 453.420747 194.780149 458.037991 192.634145 462.970967 191.860677 
C 467.903943 191.08721 472.956426 191.717047 477.548544 193.677902 
" clip-path="url(#p9ed05151b9)" style="fill: #ff0000; opacity: 0.4"/>
   </g>
   <g id="patch_16">
    <path d="M 477.548544 193.677902 
C 480.797775 199.043988 482.946463 205.003625 483.869049 211.208561 
C 484.791635 217.413496 484.469791 223.740466 482.922324 229.819753 
C 483.508124 231.067568 483.987872 232.362473 484.356488 233.690753 
C 484.725103 235.019033 484.98128 236.375982 485.122306 237.747229 
C 488.39391 234.736103 490.859561 230.952746 492.293302 226.743867 
C 493.727044 222.534988 494.083699 218.033209 493.330585 213.651075 
C 492.577471 209.268942 490.738317 205.144534 487.981666 201.655817 
C 485.225014 198.1671 481.637726 195.424002 477.548544 193.677902 
" clip-path="url(#p9ed05151b9)" style="fill: #008000; opacity: 0.4"/>
   </g>
   <g id="patch_17">
    <path d="M 477.548544 193.677902 
C 472.956426 191.717047 467.903943 191.08721 462.970967 191.860677 
C 458.037991 192.634145 453.420747 194.780149 449.649155 198.052395 
C 445.877562 201.32464 443.101648 205.592963 441.640003 210.367489 
C 440.178359 215.142015 440.089125 220.232821 441.382543 225.055639 
C 443.975394 221.76465 447.36745 219.190929 451.235074 217.580036 
C 455.102697 215.969143 459.318843 215.373994 463.481246 215.851371 
C 467.643648 216.328749 471.615581 217.862972 475.018078 220.307661 
C 478.420575 222.752349 481.14187 226.027198 482.922324 229.819753 
C 484.469791 223.740466 484.791635 217.413496 483.869049 211.208561 
C 482.946463 205.003625 480.797775 199.043988 477.548544 193.677902 
" clip-path="url(#p9ed05151b9)" style="fill: #b25900; opacity: 0.4"/>
   </g>
   <g id="patch_18">
    <path d="M 451.687175 263.124634 
C 455.610614 264.66811 459.866087 265.176019 464.04258 264.599304 
C 468.219073 264.02259 472.177652 262.380437 475.53598 259.831451 
C 478.894308 257.282466 481.540667 253.911443 483.219461 250.04397 
C 484.898255 246.176498 485.553636 241.94123 485.122306 237.747229 
C 484.010403 238.770604 482.813376 239.697444 481.544203 240.517702 
C 480.275029 241.33796 478.938312 242.04866 477.548544 242.642098 
C 474.631723 247.459209 470.877366 251.716513 466.462852 255.212864 
C 462.048338 258.709216 457.044305 261.388671 451.687175 263.124634 
" clip-path="url(#p9ed05151b9)" style="fill: #0000ff; opacity: 0.4"/>
   </g>
   <g id="patch_19">
    <path d="M 451.687175 263.124634 
C 457.044305 261.388671 462.048338 258.709216 466.462852 255.212864 
C 470.877366 251.716513 474.631723 247.459209 477.548544 242.642098 
C 474.041783 244.1395 470.253885 244.866121 466.441951 244.77264 
C 462.630016 244.679159 458.882288 243.767741 455.453141 242.100249 
C 452.023994 240.432756 448.992809 238.047788 446.565327 235.107225 
C 444.137845 232.166661 442.370258 228.738573 441.382543 225.055639 
C 439.010952 228.065793 437.376178 231.589469 436.609309 235.344117 
C 435.84244 239.098765 435.964535 242.981273 436.965804 246.680318 
C 437.967072 250.379363 439.820018 253.793359 442.376059 256.648551 
C 444.9321 259.503744 448.121042 261.721722 451.687175 263.124634 
" clip-path="url(#p9ed05151b9)" style="fill: #b200b2; opacity: 0.4"/>
   </g>
   <g id="patch_20">
    <path d="M 482.922324 229.819753 
C 482.348387 232.074489 481.608752 234.283774 480.709453 236.429585 
C 479.810155 238.575395 478.753645 240.651879 477.548544 242.642098 
C 478.938312 242.04866 480.275029 241.33796 481.544203 240.517702 
C 482.813376 239.697444 484.010403 238.770604 485.122306 237.747229 
C 484.98128 236.375982 484.725103 235.019033 484.356488 233.690753 
C 483.987872 232.362473 483.508124 231.067568 482.922324 229.819753 
" clip-path="url(#p9ed05151b9)" style="fill: #0059b2; opacity: 0.4"/>
   </g>
   <g id="patch_21">
    <path d="M 441.382543 225.055639 
C 442.370258 228.738573 444.137845 232.166661 446.565327 235.107225 
C 448.992809 238.047788 452.023994 240.432756 455.453141 242.100249 
C 458.882288 243.767741 462.630016 244.679159 466.441951 244.77264 
C 470.253885 244.866121 474.041783 244.1395 477.548544 242.642098 
C 478.753645 240.651879 479.810155 238.575395 480.709453 236.429585 
C 481.608752 234.283774 482.348387 232.074489 482.922324 229.819753 
C 481.14187 226.027198 478.420575 222.752349 475.018078 220.307661 
C 471.615581 217.862972 467.643648 216.328749 463.481246 215.851371 
C 459.318843 215.373994 455.102697 215.969143 451.235074 217.580036 
C 447.36745 219.190929 443.975394 221.76465 441.382543 225.055639 
" clip-path="url(#p9ed05151b9)" style="fill: #663366; opacity: 0.4"/>
   </g>
   <g id="text_20">
    <!-- 3561 -->
    <g transform="translate(404.492658 213.257557) scale(0.1 -0.1)">
     <use xlink:href="#DejaVuSans-33"/>
     <use xlink:href="#DejaVuSans-35" x="63.623047"/>
     <use xlink:href="#DejaVuSans-36" x="127.246094"/>
     <use xlink:href="#DejaVuSans-31" x="190.869141"/>
    </g>
   </g>
   <g id="text_21">
    <!-- 205 -->
    <g transform="translate(480.416716 217.947916) scale(0.1 -0.1)">
     <use xlink:href="#DejaVuSans-32"/>
     <use xlink:href="#DejaVuSans-30" x="63.623047"/>
     <use xlink:href="#DejaVuSans-35" x="127.246094"/>
    </g>
   </g>
   <g id="text_22">
    <!-- 853 -->
    <g transform="translate(451.025286 210.025094) scale(0.1 -0.1)">
     <use xlink:href="#DejaVuSans-38"/>
     <use xlink:href="#DejaVuSans-35" x="63.623047"/>
     <use xlink:href="#DejaVuSans-33" x="127.246094"/>
    </g>
   </g>
   <g id="text_23">
    <!-- 194 -->
    <g transform="translate(464.565913 259.409342) scale(0.1 -0.1)">
     <use xlink:href="#DejaVuSans-31"/>
     <use xlink:href="#DejaVuSans-39" x="63.623047"/>
     <use xlink:href="#DejaVuSans-34" x="127.246094"/>
    </g>
   </g>
   <g id="text_24">
    <!-- 597 -->
    <g transform="translate(439.707418 249.029477) scale(0.1 -0.1)">
     <use xlink:href="#DejaVuSans-35"/>
     <use xlink:href="#DejaVuSans-39" x="63.623047"/>
     <use xlink:href="#DejaVuSans-37" x="127.246094"/>
    </g>
   </g>
   <g id="text_25">
    <!-- 74 -->
    <g transform="translate(475.901555 239.672622) scale(0.1 -0.1)">
     <use xlink:href="#DejaVuSans-37"/>
     <use xlink:href="#DejaVuSans-34" x="63.623047"/>
    </g>
   </g>
   <g id="text_26">
    <!-- 670 -->
    <g transform="translate(451.79525 231.23079) scale(0.1 -0.1)">
     <use xlink:href="#DejaVuSans-36"/>
     <use xlink:href="#DejaVuSans-37" x="63.623047"/>
     <use xlink:href="#DejaVuSans-30" x="127.246094"/>
    </g>
   </g>
   <g id="text_27">
    <!-- Bayes -->
    <g transform="translate(377.158878 170.893493) scale(0.12 -0.12)">
     <use xlink:href="#DejaVuSans-42"/>
     <use xlink:href="#DejaVuSans-61" x="68.603516"/>
     <use xlink:href="#DejaVuSans-79" x="129.882812"/>
     <use xlink:href="#DejaVuSans-65" x="189.0625"/>
     <use xlink:href="#DejaVuSans-73" x="250.585938"/>
    </g>
   </g>
   <g id="text_28">
    <!-- Peak -->
    <g transform="translate(480.404897 191.539359) scale(0.12 -0.12)">
     <use xlink:href="#DejaVuSans-50"/>
     <use xlink:href="#DejaVuSans-65" x="56.677734"/>
     <use xlink:href="#DejaVuSans-61" x="118.201172"/>
     <use xlink:href="#DejaVuSans-6b" x="179.480469"/>
    </g>
   </g>
   <g id="text_29">
    <!-- Information -->
    <g transform="translate(425.950214 276.405318) scale(0.12 -0.12)">
     <use xlink:href="#DejaVuSans-49"/>
     <use xlink:href="#DejaVuSans-6e" x="29.492188"/>
     <use xlink:href="#DejaVuSans-66" x="92.871094"/>
     <use xlink:href="#DejaVuSans-6f" x="128.076172"/>
     <use xlink:href="#DejaVuSans-72" x="189.257812"/>
     <use xlink:href="#DejaVuSans-6d" x="228.621094"/>
     <use xlink:href="#DejaVuSans-61" x="326.033203"/>
     <use xlink:href="#DejaVuSans-74" x="387.3125"/>
     <use xlink:href="#DejaVuSans-69" x="426.521484"/>
     <use xlink:href="#DejaVuSans-6f" x="454.304688"/>
     <use xlink:href="#DejaVuSans-6e" x="515.486328"/>
    </g>
   </g>
  </g>
  <g id="axes_4">
   <g id="patch_22">
    <path d="M 562.477736 191.051695 
C 561.469692 189.987975 560.2324 189.167795 558.860077 188.653611 
C 557.487755 188.139426 556.016143 187.944629 554.557302 188.084053 
C 553.098462 188.223476 551.690386 188.693489 550.440299 189.4583 
C 549.190212 190.223112 548.13067 191.262803 547.342356 192.498204 
C 546.554042 193.733605 546.057486 195.13254 545.8905 196.588483 
C 545.723515 198.044427 545.890449 199.519459 546.37859 200.90126 
C 546.866731 202.28306 547.663367 203.535641 548.707835 204.56362 
C 549.752303 205.5916 551.0174 206.368205 552.406793 206.834299 
C 553.902616 205.793575 555.470278 204.860108 557.098008 204.040907 
C 558.725738 203.221707 560.40945 202.518828 562.136502 201.93755 
C 561.935212 200.126619 561.862838 198.303674 561.919926 196.482485 
C 561.977014 194.661297 562.16342 192.846463 562.477736 191.051695 
" clip-path="url(#p1120097073)" style="fill: #ff0000; opacity: 0.4"/>
   </g>
   <g id="patch_23">
    <path d="M 562.477736 191.051695 
C 563.742122 192.385916 564.599238 194.05411 564.94769 195.858936 
C 565.296142 197.663762 565.121625 199.53113 564.444784 201.240136 
C 569.802395 199.802459 575.407544 199.536746 580.877131 200.461157 
C 586.346717 201.385569 591.553224 203.478553 596.140798 206.597059 
C 600.728371 209.715565 604.590058 213.786889 607.461919 218.532764 
C 610.33378 223.278639 612.148861 228.58842 612.783106 234.099195 
C 619.207616 231.909029 624.939468 228.057054 629.394315 222.93597 
C 633.849161 217.814886 636.870289 211.604843 638.149701 204.93894 
C 639.429114 198.273037 638.921803 191.385768 636.679489 184.979272 
C 634.437175 178.572777 630.538737 172.872423 625.381613 168.459349 
C 620.224488 164.046275 613.990094 161.075724 607.314012 159.850536 
C 600.63793 158.625348 593.755011 159.188623 587.366954 161.482936 
C 580.978896 163.77725 575.310418 167.721892 570.939408 172.914717 
C 566.568398 178.107542 563.648619 184.365875 562.477736 191.051695 
" clip-path="url(#p1120097073)" style="fill: #008000; opacity: 0.4"/>
   </g>
   <g id="patch_24">
    <path d="M 562.477736 191.051695 
C 562.16342 192.846463 561.977014 194.661297 561.919926 196.482485 
C 561.862838 198.303674 561.935212 200.126619 562.136502 201.93755 
C 562.517466 201.809328 562.90041 201.687066 563.285194 201.570809 
C 563.669979 201.454552 564.056556 201.344314 564.444784 201.240136 
C 565.121625 199.53113 565.296142 197.663762 564.94769 195.858936 
C 564.599238 194.05411 563.742122 192.385916 562.477736 191.051695 
" clip-path="url(#p1120097073)" style="fill: #b25900; opacity: 0.4"/>
   </g>
   <g id="patch_25">
    <path d="M 552.406793 206.834299 
C 546.806008 210.731063 542.337618 216.044399 539.459 222.230441 
C 536.580382 228.416483 535.393223 235.256711 536.019039 242.050966 
C 536.644855 248.845222 539.06154 255.353501 543.021724 260.909624 
C 546.981908 266.465746 552.345699 270.873444 558.564066 273.681551 
C 564.782434 276.489658 571.635715 277.598978 578.422417 276.895963 
C 585.209119 276.192948 591.689504 273.702431 597.200247 269.679339 
C 602.71099 265.656247 607.057425 260.242695 609.794658 253.992805 
C 612.531891 247.742916 613.563229 240.877467 612.783106 234.099195 
C 607.525768 235.891464 601.942093 236.524016 596.417056 235.953238 
C 590.892018 235.382461 585.555581 233.621782 580.775674 230.792592 
C 575.995767 227.963403 571.884825 224.132253 568.726284 219.563288 
C 565.567743 214.994323 563.435899 209.795016 562.477736 204.323841 
C 561.212998 205.658433 559.592703 206.604056 557.808631 207.048784 
C 556.024558 207.493513 554.149987 207.419081 552.406793 206.834299 
" clip-path="url(#p1120097073)" style="fill: #0000ff; opacity: 0.4"/>
   </g>
   <g id="patch_26">
    <path d="M 552.406793 206.834299 
C 554.149987 207.419081 556.024558 207.493513 557.808631 207.048784 
C 559.592703 206.604056 561.212998 205.658433 562.477736 204.323841 
C 562.408418 203.92803 562.345306 203.531158 562.288423 203.133369 
C 562.23154 202.735581 562.180894 202.336925 562.136502 201.93755 
C 560.40945 202.518828 558.725738 203.221707 557.098008 204.040907 
C 555.470278 204.860108 553.902616 205.793575 552.406793 206.834299 
" clip-path="url(#p1120097073)" style="fill: #b200b2; opacity: 0.4"/>
   </g>
   <g id="patch_27">
    <path d="M 564.444784 201.240136 
C 564.218777 201.810798 563.938826 202.358591 563.608739 202.876063 
C 563.278652 203.393534 562.899933 203.878326 562.477736 204.323841 
C 563.435899 209.795016 565.567743 214.994323 568.726284 219.563288 
C 571.884825 224.132253 575.995767 227.963403 580.775674 230.792592 
C 585.555581 233.621782 590.892018 235.382461 596.417056 235.953238 
C 601.942093 236.524016 607.525768 235.891464 612.783106 234.099195 
C 612.148861 228.58842 610.33378 223.278639 607.461919 218.532764 
C 604.590058 213.786889 600.728371 209.715565 596.140798 206.597059 
C 591.553224 203.478553 586.346717 201.385569 580.877131 200.461157 
C 575.407544 199.536746 569.802395 199.802459 564.444784 201.240136 
" clip-path="url(#p1120097073)" style="fill: #0059b2; opacity: 0.4"/>
   </g>
   <g id="patch_28">
    <path d="M 562.136502 201.93755 
C 562.180894 202.336925 562.23154 202.735581 562.288423 203.133369 
C 562.345306 203.531158 562.408418 203.92803 562.477736 204.323841 
C 562.899933 203.878326 563.278652 203.393534 563.608739 202.876063 
C 563.938826 202.358591 564.218777 201.810798 564.444784 201.240136 
C 564.056556 201.344314 563.669979 201.454552 563.285194 201.570809 
C 562.90041 201.687066 562.517466 201.809328 562.136502 201.93755 
" clip-path="url(#p1120097073)" style="fill: #663366; opacity: 0.4"/>
   </g>
   <g id="text_30">
    <!-- 9 -->
    <g transform="translate(545.805887 196.306019) scale(0.1 -0.1)">
     <use xlink:href="#DejaVuSans-39"/>
    </g>
   </g>
   <g id="text_31">
    <!-- 118 -->
    <g transform="translate(599.010429 184.899944) scale(0.1 -0.1)">
     <use xlink:href="#DejaVuSans-31"/>
     <use xlink:href="#DejaVuSans-31" x="63.623047"/>
     <use xlink:href="#DejaVuSans-38" x="127.246094"/>
    </g>
   </g>
   <g id="text_32">
    <!-- 0 -->
    <g transform="translate(561.116053 198.978658) scale(0.1 -0.1)">
     <use xlink:href="#DejaVuSans-30"/>
    </g>
   </g>
   <g id="text_33">
    <!-- 119 -->
    <g transform="translate(554.313144 255.297666) scale(0.1 -0.1)">
     <use xlink:href="#DejaVuSans-31"/>
     <use xlink:href="#DejaVuSans-31" x="63.623047"/>
     <use xlink:href="#DejaVuSans-39" x="127.246094"/>
    </g>
   </g>
   <g id="text_34">
    <!-- 0 -->
    <g transform="translate(554.681036 209.067687) scale(0.1 -0.1)">
     <use xlink:href="#DejaVuSans-30"/>
    </g>
   </g>
   <g id="text_35">
    <!-- 40 -->
    <g transform="translate(579.60292 219.901074) scale(0.1 -0.1)">
     <use xlink:href="#DejaVuSans-34"/>
     <use xlink:href="#DejaVuSans-30" x="63.623047"/>
    </g>
   </g>
   <g id="text_36">
    <!-- 1 -->
    <g transform="translate(560.224239 205.50625) scale(0.1 -0.1)">
     <use xlink:href="#DejaVuSans-31"/>
    </g>
   </g>
   <g id="text_37">
    <!-- Bayes -->
    <g transform="translate(514.327029 188.040293) scale(0.12 -0.12)">
     <use xlink:href="#DejaVuSans-42"/>
     <use xlink:href="#DejaVuSans-61" x="68.603516"/>
     <use xlink:href="#DejaVuSans-79" x="129.882812"/>
     <use xlink:href="#DejaVuSans-65" x="189.0625"/>
     <use xlink:href="#DejaVuSans-73" x="250.585938"/>
    </g>
   </g>
   <g id="text_38">
    <!-- Peak -->
    <g transform="translate(619.60472 159.218648) scale(0.12 -0.12)">
     <use xlink:href="#DejaVuSans-50"/>
     <use xlink:href="#DejaVuSans-65" x="56.677734"/>
     <use xlink:href="#DejaVuSans-61" x="118.201172"/>
     <use xlink:href="#DejaVuSans-6b" x="179.480469"/>
    </g>
   </g>
   <g id="text_39">
    <!-- Info -->
    <g transform="translate(563.090337 290.078467) scale(0.12 -0.12)">
     <use xlink:href="#DejaVuSans-49"/>
     <use xlink:href="#DejaVuSans-6e" x="29.492188"/>
     <use xlink:href="#DejaVuSans-66" x="92.871094"/>
     <use xlink:href="#DejaVuSans-6f" x="128.076172"/>
    </g>
   </g>
  </g>
 </g>
 <defs>
  <clipPath id="p070d9ae39f">
   <rect x="90" y="160.622686" width="121.304348" height="115.074627"/>
  </clipPath>
  <clipPath id="pd23be3a804">
   <rect x="235.565217" y="156.626168" width="121.304348" height="123.067665"/>
  </clipPath>
  <clipPath id="p9ed05151b9">
   <rect x="381.130435" y="162.173928" width="121.304348" height="111.972144"/>
  </clipPath>
  <clipPath id="p1120097073">
   <rect x="526.695652" y="150.057928" width="121.304348" height="136.204143"/>
  </clipPath>
 </defs>
</svg>
